<svg width="29" height="29" viewBox="0 0 29 29" fill="none" xmlns="http://www.w3.org/2000/svg">
<path fill-rule="evenodd" clip-rule="evenodd" d="M19.3497 12.7145L19.0214 15.1111H15.0775V23.5H12.6808V15.1111H9.08581V12.7145H12.6808V10.5178C12.6808 7.47029 14.5525 5.50001 17.4517 5.50001C18.6931 5.50001 19.4674 5.56606 19.9144 5.62588L19.8795 7.89574L18.0365 7.89957C17.9863 7.89478 16.7855 7.80146 15.9188 8.59685C15.3603 9.10844 15.0775 9.84448 15.0775 10.7815V12.7145H19.3497Z" stroke="#C49E78" stroke-linecap="round" stroke-linejoin="round"/>
<path d="M14.5 28.5C22.232 28.5 28.5 22.232 28.5 14.5C28.5 6.76801 22.232 0.5 14.5 0.5C6.76801 0.5 0.5 6.76801 0.5 14.5C0.5 22.232 6.76801 28.5 14.5 28.5Z" stroke="#C49E78" stroke-linecap="round" stroke-linejoin="round"/>
</svg>
