<svg width="31" height="30" viewBox="0 0 31 30" fill="none" xmlns="http://www.w3.org/2000/svg">
<path d="M21.618 3.91423C21.81 3.72226 21.7035 3.39733 21.4331 3.37239C21.153 3.34654 20.8695 3.33333 20.5833 3.33333C18.1942 3.33333 16.0919 4.45356 14.5833 5.90306C13.0747 4.45356 10.9725 3.33333 8.58333 3.33333C3.94857 3.33333 0 6.79884 0 11.2997C0 14.3828 1.3148 17.0941 3.13637 19.3859C3.47201 19.8082 3.82675 20.2187 4.19641 20.6173C4.38636 20.8221 4.70786 20.8244 4.90539 20.6268L5.96682 19.5654C6.15957 19.3727 6.16189 19.0615 5.97729 18.8609C5.66781 18.5247 5.37227 18.1811 5.09348 17.8304C3.49298 15.8167 2.5 13.6388 2.5 11.2997C2.5 8.38183 5.11792 5.83333 8.58333 5.83333C10.5736 5.83333 12.432 7.02237 13.5924 8.53154C13.829 8.83927 14.1952 9.01961 14.5833 9.01961C14.9715 9.01961 15.3377 8.83927 15.5743 8.53154C16.5015 7.3256 17.8744 6.32408 19.4042 5.9703C19.5341 5.94026 19.6547 5.87754 19.7489 5.78328L21.618 3.91423Z" fill="#C49E78"/>
<path fill-rule="evenodd" clip-rule="evenodd" d="M2.08832 26.9772L2.03278 27.0328C1.54463 27.5209 1.54463 28.3124 2.03278 28.8006C2.52094 29.2887 3.31239 29.2887 3.80055 28.8006L8.32927 24.2718C8.75713 24.5916 9.18577 24.8988 9.61089 25.1933C10.4808 25.7959 11.3608 26.3518 12.1662 26.762C12.9225 27.1472 13.7921 27.5 14.5833 27.5C15.3746 27.5 16.2442 27.1472 17.0005 26.762C17.8059 26.3518 18.6859 25.7959 19.5558 25.1933C21.8333 23.6155 24.2119 21.6738 26.0303 19.3859C27.8519 17.0941 29.1667 14.3828 29.1667 11.2997C29.1667 9.13928 28.2569 7.21743 26.7982 5.80287L30.4672 2.13388C30.9554 1.64573 30.9554 0.854272 30.4672 0.366117C29.994 -0.107128 29.2357 -0.121583 28.745 0.322751L2.13388 26.9339C2.11897 26.9488 2.10378 26.9632 2.08832 26.9772ZM25.0296 7.57152L10.1167 22.4844C10.4212 22.7077 10.7277 22.9256 11.0346 23.1383C11.8594 23.7097 12.6362 24.1959 13.3008 24.5343C14.0144 24.8977 14.4278 25 14.5833 25C14.7389 25 15.1523 24.8977 15.8659 24.5343C16.5304 24.1959 17.3073 23.7097 18.1321 23.1383C20.3118 21.6282 22.4695 19.848 24.0732 17.8304C25.6737 15.8167 26.6667 13.6388 26.6667 11.2997C26.6667 9.88834 26.0542 8.56343 25.0296 7.57152Z" fill="#C49E78"/>
</svg>
