<svg width="28" height="28" viewBox="0 0 28 28" fill="none" xmlns="http://www.w3.org/2000/svg">
<path d="M16.105 12.1579C16.9425 12.1579 17.7457 12.4906 18.3379 13.0828C18.9302 13.675 19.2629 14.4783 19.2629 15.3158V19H17.1576V15.3158C17.1576 15.0366 17.0467 14.7689 16.8493 14.5715C16.6519 14.3741 16.3842 14.2632 16.105 14.2632C15.8258 14.2632 15.5581 14.3741 15.3607 14.5715C15.1632 14.7689 15.0523 15.0366 15.0523 15.3158V19H12.9471V15.3158C12.9471 14.4783 13.2798 13.675 13.872 13.0828C14.4642 12.4906 15.2675 12.1579 16.105 12.1579Z" stroke="#C49E78" stroke-width="1.1" stroke-linecap="round" stroke-linejoin="round"/>
<path d="M10.8421 12.6842H8.73682V19H10.8421V12.6842Z" stroke="#C49E78" stroke-width="1.1" stroke-linecap="round" stroke-linejoin="round"/>
<path d="M9.78945 11.1053C10.3708 11.1053 10.8421 10.634 10.8421 10.0526C10.8421 9.47128 10.3708 9 9.78945 9C9.2081 9 8.73682 9.47128 8.73682 10.0526C8.73682 10.634 9.2081 11.1053 9.78945 11.1053Z" stroke="#C49E78" stroke-width="1.1" stroke-linecap="round" stroke-linejoin="round"/>
<circle cx="14" cy="14" r="13.5" stroke="#C49E78"/>
</svg>
