<svg width="29" height="29" viewBox="0 0 29 29" fill="none" xmlns="http://www.w3.org/2000/svg">
<path d="M22.6093 9.27434C22.398 9.09236 22.1422 8.98822 21.9542 8.92402C21.7444 8.85224 21.5048 8.7936 21.253 8.74356C20.7475 8.64347 20.1162 8.5641 19.4155 8.50193C18.0102 8.37757 16.2496 8.31641 14.5 8.31641C12.7504 8.31641 10.9893 8.37757 9.58447 8.50193C8.88435 8.5641 8.25247 8.64347 7.74747 8.74356C7.49573 8.7936 7.25612 8.85224 7.04634 8.92402C6.8588 8.98822 6.6025 9.09236 6.3912 9.27434C6.19102 9.44722 6.07779 9.66004 6.0146 9.80006C5.94383 9.95626 5.88974 10.1256 5.84678 10.2899C5.76084 10.619 5.69563 11.0168 5.6466 11.4409C5.54752 12.2947 5.5 13.3573 5.5 14.4133C5.5 15.4693 5.54752 16.548 5.64609 17.4332C5.69512 17.874 5.75882 18.287 5.84172 18.6332C5.9135 18.933 6.0323 19.341 6.27393 19.6387C6.49787 19.9147 6.81633 20.0401 6.97355 20.0967C7.17777 20.1705 7.41384 20.2281 7.65749 20.2761C8.14884 20.3727 8.77921 20.448 9.48388 20.5071C10.8993 20.6254 12.7055 20.6836 14.5 20.6836C16.2945 20.6836 18.1012 20.6254 19.5161 20.5071C20.2208 20.4485 20.8512 20.3727 21.3425 20.2761C21.5862 20.2286 21.8222 20.1705 22.0265 20.0967C22.1837 20.0401 22.5021 19.9147 22.7261 19.6387C22.9677 19.341 23.0865 18.933 23.1583 18.6332C23.2412 18.2865 23.3049 17.874 23.3539 17.4332C23.4525 16.548 23.5 15.4703 23.5 14.4133C23.5 13.3563 23.4525 12.2947 23.3534 11.4409C23.3044 11.0168 23.2392 10.619 23.1532 10.2899C23.1103 10.1256 23.0562 9.95626 22.9854 9.80006C22.9217 9.66004 22.809 9.44671 22.6088 9.27434H22.6093Z" stroke="#C49E78" stroke-linecap="round" stroke-linejoin="round"/>
<path d="M16.6132 14.4997L12.3872 17.2183V11.7811L16.6132 14.4997Z" stroke="#C49E78" stroke-linecap="round" stroke-linejoin="round"/>
<path d="M14.5 28.5C22.232 28.5 28.5 22.232 28.5 14.5C28.5 6.76801 22.232 0.5 14.5 0.5C6.76801 0.5 0.5 6.76801 0.5 14.5C0.5 22.232 6.76801 28.5 14.5 28.5Z" stroke="#C49E78" stroke-linecap="round" stroke-linejoin="round"/>
</svg>
